
<svg width="21" height="20" viewBox="0 0 21 20" fill="none" xmlns="http://www.w3.org/2000/svg">
<path d="M10.5 5.6875C9.64707 5.6875 8.81329 5.94042 8.1041 6.41429C7.39492 6.88815 6.84217 7.56167 6.51577 8.34968C6.18937 9.13768 6.10397 10.0048 6.27036 10.8413C6.43676 11.6779 6.84749 12.4463 7.4506 13.0494C8.05372 13.6525 8.82213 14.0632 9.65867 14.2296C10.4952 14.396 11.3623 14.3106 12.1503 13.9842C12.9383 13.6578 13.6118 13.1051 14.0857 12.3959C14.5596 11.6867 14.8125 10.8529 14.8125 10C14.811 8.85671 14.3562 7.76067 13.5478 6.95225C12.7393 6.14382 11.6433 5.68899 10.5 5.6875ZM10.5 13.1875C9.86957 13.1875 9.2533 13.0006 8.72912 12.6503C8.20494 12.3001 7.79639 11.8022 7.55513 11.2198C7.31388 10.6374 7.25076 9.99646 7.37375 9.37815C7.49674 8.75984 7.80032 8.19188 8.2461 7.7461C8.69188 7.30032 9.25984 6.99674 9.87815 6.87375C10.4965 6.75076 11.1374 6.81388 11.7198 7.05513C12.3022 7.29639 12.8001 7.70494 13.1503 8.22912C13.5006 8.7533 13.6875 9.36957 13.6875 10C13.6875 10.8454 13.3517 11.6561 12.7539 12.2539C12.1561 12.8517 11.3454 13.1875 10.5 13.1875ZM15 0.4375H6C4.6578 0.438989 3.371 0.972836 2.42192 1.92192C1.47284 2.871 0.938989 4.1578 0.9375 5.5V14.5C0.938989 15.8422 1.47284 17.129 2.42192 18.0781C3.371 19.0272 4.6578 19.561 6 19.5625H15C16.3422 19.561 17.629 19.0272 18.5781 18.0781C19.5272 17.129 20.061 15.8422 20.0625 14.5V5.5C20.061 4.1578 19.5272 2.871 18.5781 1.92192C17.629 0.972836 16.3422 0.438989 15 0.4375ZM18.9375 14.5C18.9375 15.5443 18.5227 16.5458 17.7842 17.2842C17.0458 18.0227 16.0443 18.4375 15 18.4375H6C4.95571 18.4375 3.95419 18.0227 3.21577 17.2842C2.47734 16.5458 2.0625 15.5443 2.0625 14.5V5.5C2.0625 4.45571 2.47734 3.45419 3.21577 2.71577C3.95419 1.97734 4.95571 1.5625 6 1.5625H15C16.0443 1.5625 17.0458 1.97734 17.7842 2.71577C18.5227 3.45419 18.9375 4.45571 18.9375 5.5V14.5ZM16.3125 5.125C16.3125 5.31042 16.2575 5.49168 16.1545 5.64585C16.0515 5.80002 15.9051 5.92018 15.7338 5.99114C15.5625 6.06209 15.374 6.08066 15.1921 6.04449C15.0102 6.00831 14.8432 5.91902 14.7121 5.78791C14.581 5.6568 14.4917 5.48975 14.4555 5.3079C14.4193 5.12604 14.4379 4.93754 14.5089 4.76623C14.5798 4.59493 14.7 4.44851 14.8542 4.3455C15.0083 4.24248 15.1896 4.1875 15.375 4.1875C15.6236 4.1875 15.8621 4.28627 16.0379 4.46209C16.2137 4.6379 16.3125 4.87636 16.3125 5.125Z" fill="black"/>
</svg>
