
<svg width="21" height="20" viewBox="0 0 21 20" fill="none" xmlns="http://www.w3.org/2000/svg">
<path d="M10.5 0.4375C8.60872 0.4375 6.75991 0.998331 5.18736 2.04907C3.61482 3.09981 2.38917 4.59327 1.66541 6.34059C0.941643 8.08791 0.752274 10.0106 1.12125 11.8656C1.49022 13.7205 2.40096 15.4244 3.7383 16.7617C5.07564 18.099 6.77951 19.0098 8.63445 19.3788C10.4894 19.7477 12.4121 19.5584 14.1594 18.8346C15.9067 18.1108 17.4002 16.8852 18.4509 15.3126C19.5017 13.7401 20.0625 11.8913 20.0625 10C20.0595 7.46478 19.0511 5.03425 17.2584 3.24158C15.4658 1.44891 13.0352 0.440477 10.5 0.4375ZM11.0625 18.4188V12.0625H13.5C13.6492 12.0625 13.7923 12.0032 13.8978 11.8977C14.0032 11.7923 14.0625 11.6492 14.0625 11.5C14.0625 11.3508 14.0032 11.2077 13.8978 11.1023C13.7923 10.9968 13.6492 10.9375 13.5 10.9375H11.0625V8.5C11.0625 8.05245 11.2403 7.62323 11.5568 7.30676C11.8732 6.99029 12.3025 6.8125 12.75 6.8125H14.25C14.3992 6.8125 14.5423 6.75324 14.6478 6.64775C14.7532 6.54226 14.8125 6.39918 14.8125 6.25C14.8125 6.10082 14.7532 5.95774 14.6478 5.85225C14.5423 5.74676 14.3992 5.6875 14.25 5.6875H12.75C12.0041 5.6875 11.2887 5.98382 10.7613 6.51126C10.2338 7.03871 9.9375 7.75408 9.9375 8.5V10.9375H7.5C7.35082 10.9375 7.20775 10.9968 7.10226 11.1023C6.99677 11.2077 6.9375 11.3508 6.9375 11.5C6.9375 11.6492 6.99677 11.7923 7.10226 11.8977C7.20775 12.0032 7.35082 12.0625 7.5 12.0625H9.9375V18.4188C7.75334 18.2728 5.71138 17.2837 4.24285 15.6604C2.77432 14.037 1.99419 11.9064 2.0672 9.71861C2.14021 7.53079 3.06064 5.45698 4.63413 3.93513C6.20761 2.41328 8.31097 1.56252 10.5 1.56252C12.689 1.56252 14.7924 2.41328 16.3659 3.93513C17.9394 5.45698 18.8598 7.53079 18.9328 9.71861C19.0058 11.9064 18.2257 14.037 16.7572 15.6604C15.2886 17.2837 13.2467 18.2728 11.0625 18.4188Z" fill="black"/>
</svg>
