
<svg width="16" height="20" class="icon icon-cart" viewBox="0 0 16 20" fill="none" xmlns="http://www.w3.org/2000/svg">
<path d="M14.875 5.1875H11.5938V5C11.5938 3.85625 11.2151 2.75935 10.5412 1.9506C9.86721 1.14185 8.95312 0.6875 8 0.6875C7.04688 0.6875 6.13279 1.14185 5.45884 1.9506C4.78488 2.75935 4.40625 3.85625 4.40625 5V5.1875H1.125C0.834919 5.1875 0.55672 5.32578 0.351602 5.57192C0.146484 5.81806 0.03125 6.1519 0.03125 6.5V17.75C0.03125 18.0981 0.146484 18.4319 0.351602 18.6781C0.55672 18.9242 0.834919 19.0625 1.125 19.0625H14.875C15.1651 19.0625 15.4433 18.9242 15.6484 18.6781C15.8535 18.4319 15.9688 18.0981 15.9688 17.75V6.5C15.9688 6.1519 15.8535 5.81806 15.6484 5.57192C15.4433 5.32578 15.1651 5.1875 14.875 5.1875ZM5.34375 5C5.34375 4.15462 5.6236 3.34387 6.12175 2.7461C6.61989 2.14832 7.29552 1.8125 8 1.8125C8.70448 1.8125 9.38011 2.14832 9.87825 2.7461C10.3764 3.34387 10.6562 4.15462 10.6562 5V5.1875H5.34375V5ZM15.0312 17.75C15.0312 17.7997 15.0148 17.8474 14.9855 17.8826C14.9562 17.9177 14.9164 17.9375 14.875 17.9375H1.125C1.08356 17.9375 1.04382 17.9177 1.01451 17.8826C0.985212 17.8474 0.96875 17.7997 0.96875 17.75V6.5C0.96875 6.45027 0.985212 6.40258 1.01451 6.36742C1.04382 6.33225 1.08356 6.3125 1.125 6.3125H14.875C14.9164 6.3125 14.9562 6.33225 14.9855 6.36742C15.0148 6.40258 15.0312 6.45027 15.0312 6.5V17.75Z" fill="black"/>
</svg>
