<svg width="19" height="16" viewBox="0 0 19 16" fill="none" xmlns="http://www.w3.org/2000/svg">
<path d="M18.4007 3.61544C18.3565 3.56125 18.2995 3.51732 18.234 3.48709C18.1686 3.45686 18.0965 3.44115 18.0234 3.44118H4.10493L3.32427 0.822794C3.29651 0.729955 3.23688 0.648137 3.15449 0.589846C3.0721 0.531556 2.97149 0.499999 2.86803 0.5H0.973606C0.847998 0.5 0.727534 0.546481 0.638716 0.629218C0.549898 0.711954 0.5 0.824169 0.5 0.941176C0.5 1.05818 0.549898 1.1704 0.638716 1.25314C0.727534 1.33587 0.847998 1.38235 0.973606 1.38235H2.50809L5.315 10.786C5.41741 11.1257 5.63582 11.4251 5.93719 11.6388C6.23856 11.8526 6.60648 11.969 6.98525 11.9706H14.7871C15.1664 11.9697 15.5351 11.8535 15.8371 11.6397C16.1391 11.4259 16.358 11.1262 16.4605 10.786L18.4836 4.00074C18.5027 3.93491 18.5051 3.86587 18.4908 3.79902C18.4764 3.73217 18.4456 3.66933 18.4007 3.61544ZM15.5433 10.55C15.4973 10.7041 15.3986 10.8401 15.2621 10.9372C15.1256 11.0343 14.9589 11.0874 14.7871 11.0882H6.98525C6.81283 11.0882 6.64517 11.0355 6.50791 10.9383C6.37064 10.8411 6.27132 10.7047 6.22511 10.55L4.36778 4.32353H17.4006L15.5433 10.55ZM7.76196 14.4706C7.76196 14.6742 7.69715 14.8732 7.57572 15.0425C7.45429 15.2118 7.2817 15.3437 7.07978 15.4216C6.87785 15.4996 6.65565 15.5199 6.44129 15.4802C6.22693 15.4405 6.03002 15.3425 5.87547 15.1985C5.72092 15.0545 5.61567 14.8711 5.57303 14.6714C5.53039 14.4717 5.55228 14.2647 5.63592 14.0766C5.71956 13.8885 5.8612 13.7278 6.04293 13.6147C6.22466 13.5016 6.43832 13.4412 6.65688 13.4412C6.94997 13.4412 7.23105 13.5496 7.43829 13.7427C7.64553 13.9357 7.76196 14.1976 7.76196 14.4706ZM15.9711 14.4706C15.9711 14.6742 15.9063 14.8732 15.7849 15.0425C15.6635 15.2118 15.4909 15.3437 15.289 15.4216C15.087 15.4996 14.8648 15.5199 14.6505 15.4802C14.4361 15.4405 14.2392 15.3425 14.0846 15.1985C13.9301 15.0545 13.8248 14.8711 13.7822 14.6714C13.7396 14.4717 13.7615 14.2647 13.8451 14.0766C13.9287 13.8885 14.0704 13.7278 14.2521 13.6147C14.4338 13.5016 14.6475 13.4412 14.8661 13.4412C15.1591 13.4412 15.4402 13.5496 15.6475 13.7427C15.8547 13.9357 15.9711 14.1976 15.9711 14.4706Z" fill="#212121"/>
</svg>
