
<svg width="23" height="22" viewBox="0 0 23 22" fill="none" xmlns="http://www.w3.org/2000/svg">
<path d="M19.75 4.29688H3.25C3.11325 4.29688 2.9821 4.3512 2.8854 4.4479C2.7887 4.5446 2.73438 4.67575 2.73438 4.8125V16.5C2.73438 16.8191 2.86113 17.1251 3.08676 17.3507C3.31239 17.5764 3.61841 17.7031 3.9375 17.7031H19.0625C19.3816 17.7031 19.6876 17.5764 19.9132 17.3507C20.1389 17.1251 20.2656 16.8191 20.2656 16.5V4.8125C20.2656 4.67575 20.2113 4.5446 20.1146 4.4479C20.0179 4.3512 19.8868 4.29688 19.75 4.29688ZM18.4248 5.32812L11.5 11.6755L4.57516 5.32812H18.4248ZM19.0625 16.6719H3.9375C3.89192 16.6719 3.8482 16.6538 3.81597 16.6215C3.78373 16.5893 3.76562 16.5456 3.76562 16.5V5.98469L11.1562 12.7548C11.2513 12.8418 11.3755 12.89 11.5043 12.89C11.6331 12.89 11.7573 12.8418 11.8523 12.7548L19.2344 5.98469V16.5C19.2344 16.5456 19.2163 16.5893 19.184 16.6215C19.1518 16.6538 19.1081 16.6719 19.0625 16.6719Z" fill="black"/>
</svg>
