
<svg class="icon icon-caret" width="16" height="16" viewBox="0 0 16 16" fill="none" xmlns="http://www.w3.org/2000/svg">
<g clip-path="url(#clip0_111_1246)">
<path d="M11.3538 7.64616L6.35375 2.64616C6.28382 2.57615 6.1947 2.52847 6.09765 2.50914C6.00061 2.48982 5.90002 2.49972 5.8086 2.53759C5.71719 2.57547 5.63908 2.63962 5.58414 2.72191C5.5292 2.80421 5.49992 2.90096 5.5 2.99991V12.9999C5.49992 13.0989 5.5292 13.1956 5.58414 13.2779C5.63908 13.3602 5.71719 13.4243 5.8086 13.4622C5.90002 13.5001 6.00061 13.51 6.09765 13.4907C6.1947 13.4713 6.28382 13.4237 6.35375 13.3537L11.3538 8.35366C11.4002 8.30722 11.4371 8.25208 11.4623 8.19138C11.4874 8.13068 11.5004 8.06561 11.5004 7.99991C11.5004 7.9342 11.4874 7.86913 11.4623 7.80844C11.4371 7.74774 11.4002 7.69259 11.3538 7.64616Z" fill="black"/>
</g>
<defs>
<clipPath id="clip0_111_1246">
<rect width="16" height="16" fill="white"/>
</clipPath>
</defs>
</svg>
